<svg xmlns="http://www.w3.org/2000/svg" width="206" height="24" viewBox="0 0 206 24" fill="none">
  <path d="M16.33 19.73 L12.85 19.73 L12.85 13.46 L6.47 13.46 L6.47 19.73 L3 19.73 L3 4.33 L6.47 4.33 L6.47 10.47 L12.85 10.47 L12.85 4.33 L16.33 4.33 Z M31.97 4.33 L26.96 14.25 L26.96 19.73 L23.49 19.73 L23.49 14.32 L18.6 4.33 L22.56 4.33 L25.04 10.07 C25.09 10.18 25.2 10.6 25.4 11.33 L25.44 11.33 C25.53 10.82 25.64 10.41 25.77 10.12 L28.3 4.33 Z M37.58 14.42 L37.58 19.73 L34.11 19.73 L34.11 4.33 L39.54 4.33 C43.43 4.33 45.37 5.96 45.37 9.24 C45.37 10.78 44.81 12.03 43.7 12.99 C42.58 13.95 41.1 14.42 39.23 14.42 Z M37.58 6.99 L37.58 11.79 L38.94 11.79 C40.79 11.79 41.71 10.98 41.71 9.37 C41.71 7.78 40.79 6.99 38.94 6.99 Z M57.27 19.73 L48.03 19.73 L48.03 4.33 L56.92 4.33 L56.92 7.15 L51.5 7.15 L51.5 10.58 L56.54 10.58 L56.54 13.39 L51.5 13.39 L51.5 16.92 L57.27 16.92 Z M73.02 19.73 L69.03 19.73 L66.64 15.77 C66.46 15.47 66.29 15.2 66.12 14.96 C65.96 14.73 65.79 14.52 65.62 14.35 C65.45 14.19 65.28 14.06 65.1 13.97 C64.91 13.88 64.71 13.83 64.5 13.83 L63.56 13.83 L63.56 19.73 L60.09 19.73 L60.09 4.33 L65.59 4.33 C69.33 4.33 71.2 5.72 71.2 8.52 C71.2 9.05 71.12 9.55 70.96 10 C70.79 10.46 70.56 10.87 70.26 11.23 C69.96 11.6 69.59 11.91 69.17 12.18 C68.74 12.44 68.27 12.65 67.74 12.8 L67.74 12.85 C67.97 12.92 68.19 13.03 68.41 13.19 C68.62 13.36 68.83 13.54 69.03 13.76 C69.23 13.97 69.42 14.2 69.61 14.45 C69.79 14.7 69.96 14.94 70.11 15.18 Z M63.56 6.93 L63.56 11.21 L65.07 11.21 C65.81 11.21 66.41 11 66.86 10.57 C67.32 10.13 67.55 9.59 67.55 8.95 C67.55 7.6 66.74 6.93 65.13 6.93 Z M87.71 4.33 L82.41 19.73 L78.47 19.73 L73.23 4.33 L76.97 4.33 L80.18 15.05 C80.35 15.63 80.46 16.14 80.49 16.58 L80.56 16.58 C80.61 16.1 80.72 15.58 80.89 15 L84.08 4.33 Z M93.47 19.73 L90 19.73 L90 4.33 L93.47 4.33 Z M96.47 19.14 L96.47 15.7 C97.09 16.23 97.77 16.62 98.5 16.88 C99.23 17.14 99.97 17.27 100.71 17.27 C101.15 17.27 101.53 17.23 101.85 17.15 C102.18 17.07 102.45 16.97 102.67 16.83 C102.89 16.69 103.05 16.52 103.16 16.33 C103.27 16.14 103.32 15.94 103.32 15.71 C103.32 15.41 103.24 15.14 103.06 14.91 C102.89 14.67 102.66 14.45 102.36 14.25 C102.06 14.05 101.71 13.86 101.3 13.67 C100.89 13.49 100.45 13.3 99.98 13.1 C98.78 12.6 97.88 11.99 97.29 11.27 C96.7 10.54 96.4 9.67 96.4 8.65 C96.4 7.84 96.56 7.15 96.89 6.58 C97.21 6 97.65 5.53 98.2 5.15 C98.76 4.78 99.4 4.51 100.13 4.33 C100.86 4.16 101.63 4.07 102.45 4.07 C103.25 4.07 103.96 4.12 104.58 4.21 C105.2 4.31 105.77 4.46 106.3 4.66 L106.3 7.87 C106.04 7.69 105.76 7.54 105.45 7.4 C105.15 7.26 104.84 7.15 104.51 7.06 C104.19 6.97 103.87 6.91 103.55 6.86 C103.23 6.82 102.93 6.8 102.64 6.8 C102.25 6.8 101.89 6.84 101.57 6.91 C101.25 6.99 100.98 7.09 100.75 7.23 C100.53 7.36 100.36 7.53 100.24 7.72 C100.12 7.91 100.06 8.12 100.06 8.36 C100.06 8.61 100.12 8.84 100.26 9.05 C100.4 9.25 100.59 9.45 100.84 9.63 C101.09 9.81 101.39 9.99 101.75 10.17 C102.11 10.34 102.52 10.52 102.97 10.71 C103.58 10.97 104.14 11.24 104.63 11.53 C105.12 11.82 105.54 12.15 105.89 12.51 C106.24 12.88 106.51 13.3 106.69 13.76 C106.88 14.23 106.97 14.78 106.97 15.4 C106.97 16.26 106.81 16.98 106.48 17.57 C106.16 18.15 105.72 18.62 105.16 18.98 C104.6 19.35 103.95 19.61 103.21 19.76 C102.47 19.92 101.68 20 100.86 20 C100.02 20 99.21 19.93 98.45 19.79 C97.69 19.64 97.03 19.43 96.47 19.14 Z M113.34 19.73 L109.87 19.73 L109.87 4.33 L113.34 4.33 Z M123.56 20 C121.35 20 119.56 19.28 118.17 17.85 C116.78 16.41 116.08 14.54 116.08 12.23 C116.08 9.8 116.79 7.83 118.2 6.33 C119.61 4.82 121.48 4.07 123.81 4.07 C126.01 4.07 127.78 4.79 129.14 6.23 C130.5 7.67 131.18 9.57 131.18 11.92 C131.18 14.34 130.47 16.29 129.06 17.78 C127.66 19.26 125.82 20 123.56 20 Z M123.71 7.06 C122.49 7.06 121.53 7.51 120.81 8.43 C120.09 9.34 119.74 10.55 119.74 12.05 C119.74 13.58 120.09 14.78 120.81 15.67 C121.53 16.56 122.46 17 123.62 17 C124.82 17 125.77 16.57 126.47 15.71 C127.17 14.85 127.52 13.65 127.52 12.12 C127.52 10.52 127.18 9.28 126.5 8.39 C125.82 7.5 124.89 7.06 123.71 7.06 Z M148.09 19.73 L144.59 19.73 L138.24 10.05 C137.87 9.49 137.61 9.06 137.47 8.77 L137.43 8.77 C137.49 9.32 137.51 10.15 137.51 11.27 L137.51 19.73 L134.24 19.73 L134.24 4.33 L137.98 4.33 L144.09 13.71 C144.37 14.13 144.62 14.55 144.86 14.96 L144.9 14.96 C144.85 14.6 144.82 13.9 144.82 12.85 L144.82 4.33 L148.09 4.33 Z" fill="#C1243E"/>
</svg>

